# This file uses centimeters as units for non-parametric coordinates.

mtllib iwa.mtl
g default
v -3.204395 -1.943604 2.400362
v -1.905051 -2.702438 2.400362
v -1.905051 -1.943604 3.699708
v -1.452644 -1.047687 3.309832
v -2.348561 -1.047687 2.550999
v -3.107395 -1.047687 1.655082
v 3.204395 -1.943604 2.400362
v 3.107395 -1.047687 1.655082
v 2.348561 -1.047687 2.550999
v 1.452644 -1.047687 3.309832
v 1.905051 -1.943604 3.699708
v 1.905051 -2.702438 2.400362
v -1.926834 1.926834 1.250125
v -2.500000 1.250125 1.250125
v -1.926834 1.250125 1.926834
v -1.250125 1.250125 2.500000
v -1.250125 1.926834 1.926834
v -1.250125 2.500000 1.250125
v 1.926834 1.926834 1.250125
v 1.250125 2.500000 1.250125
v 1.250125 1.926834 1.926834
v 1.250125 1.250125 2.500000
v 1.926834 1.250125 1.926834
v 2.500000 1.250125 1.250125
v -1.926834 1.250125 -1.926834
v -2.500000 1.250125 -1.250125
v -1.926834 1.926834 -1.250125
v -1.250125 2.500000 -1.250125
v -1.250125 1.926834 -1.926834
v -1.250125 1.250125 -2.500000
v 1.926834 1.250125 -1.926834
v 1.250125 1.250125 -2.500000
v 1.250125 1.926834 -1.926834
v 1.250125 2.500000 -1.250125
v 1.926834 1.926834 -1.250125
v 2.500000 1.250125 -1.250125
v -3.204395 -1.943604 -2.400362
v -3.107395 -1.047687 -1.655082
v -2.348561 -1.047687 -2.550999
v -1.452644 -1.047687 -3.309832
v -1.905051 -1.943604 -3.699708
v -1.905051 -2.702438 -2.400362
v 3.204395 -1.943604 -2.400362
v 1.905051 -2.702438 -2.400362
v 1.905051 -1.943604 -3.699708
v 1.452644 -1.047687 -3.309832
v 2.348561 -1.047687 -2.550999
v 3.107395 -1.047687 -1.655082
v -2.811776 -1.672887 3.307084
v 2.811776 -1.672887 3.307084
v -1.722354 1.722354 1.722354
v 1.722354 1.722354 1.722354
v -1.722354 1.722354 -1.722354
v 1.722354 1.722354 -1.722354
v -2.811776 -1.672887 -3.307084
v 2.811776 -1.672887 -3.307084
v -1.905051 -2.702438 2.400362
v -3.204396 -1.943604 2.400362
v -3.204396 -1.943604 -2.400362
v -1.905051 -2.702438 -2.400362
v -3.107395 -1.047687 1.655082
v -3.107395 -1.047687 -1.655082
v 3.107395 -1.047687 1.655082
v 3.204396 -1.943604 2.400362
v 3.204396 -1.943604 -2.400362
v 3.107395 -1.047687 -1.655082
v 1.905051 -2.702438 2.400362
v 1.905051 -2.702438 -2.400362
vt 0.437494 0.937506
vt 0.437494 0.062494
vt 0.562506 0.937506
vt 0.687494 0.062494
vt 0.437494 0.187506
vt 0.562506 0.187506
vt 0.687494 0.187506
vt 0.187494 0.062494
vt 0.437494 0.437506
vt 0.562506 0.437506
vt 0.812506 0.187506
vt 0.812506 0.062494
vt 0.562506 0.812494
vt 0.437494 0.687506
vt 0.562506 0.687506
vt 0.562506 0.062494
vt 0.437494 0.312494
vt 0.562506 0.312494
vt 0.437494 0.562494
vt 0.562506 0.562494
vt 0.437494 0.812494
vt 0.312506 0.062494
vt 0.312506 0.187506
vt 0.187494 0.187506
vt 0.375000 0.961628
vt 0.336628 -0.000000
vt 0.413372 -0.000000
vt 0.413372 1.000000
vt 0.375000 0.053122
vt 0.663372 -0.000000
vt 0.625000 0.961628
vt 0.625000 0.053122
vt 0.586628 1.000000
vt 0.586628 -0.000000
vt 0.336628 0.250000
vt 0.375000 0.288372
vt 0.375000 0.196878
vt 0.428122 0.250000
vt 0.625000 0.288372
vt 0.663372 0.250000
vt 0.571878 0.250000
vt 0.625000 0.196878
vt 0.125000 0.211628
vt 0.375000 0.538372
vt 0.375000 0.461628
vt 0.163372 0.250000
vt 0.428122 0.500000
vt 0.625000 0.538372
vt 0.875000 0.211628
vt 0.571878 0.500000
vt 0.836628 0.250000
vt 0.625000 0.461628
vt 0.163372 -0.000000
vt 0.375000 0.788372
vt 0.375000 0.711628
vt 0.125000 0.038372
vt 0.428122 0.750000
vt 0.625000 0.788372
vt 0.836628 -0.000000
vt 0.571878 0.750000
vt 0.875000 0.038372
vt 0.625000 0.711628
vt 0.375000 1.000000
vt 0.375000 0.000000
vt 0.625000 0.000000
vt 0.625000 1.000000
vt 0.375000 0.250000
vt 0.625000 0.250000
vt 0.125000 0.250000
vt 0.375000 0.500000
vt 0.625000 0.500000
vt 0.875000 0.250000
vt 0.125000 0.000000
vt 0.375000 0.750000
vt 0.625000 0.750000
vt 0.875000 0.000000
vt 0.437494 0.937506
vt 0.375000 0.961628
vt 0.375000 0.788372
vt 0.437494 0.812494
vt 0.336628 -0.000000
vt 0.312506 0.062494
vt 0.187494 0.062494
vt 0.163372 -0.000000
vt 0.687494 0.062494
vt 0.663372 -0.000000
vt 0.836628 -0.000000
vt 0.812506 0.062494
vt 0.625000 0.961628
vt 0.562506 0.937506
vt 0.562506 0.812494
vt 0.625000 0.788372
vn -0.504308 -0.863524 0.000000
vn -0.686291 -0.727327 0.000000
vn -0.686291 -0.727327 0.000000
vn -0.504308 -0.863524 0.000000
vn -0.994190 0.107641 0.000000
vn -0.994190 0.107641 0.000000
vn 0.000000 0.399024 0.916940
vn 0.000000 -0.619748 0.784800
vn 0.000000 -0.619748 0.784800
vn 0.000000 0.399024 0.916940
vn 0.000000 -0.863524 0.504308
vn 0.000000 -0.863524 0.504308
vn -0.727689 0.300977 0.616346
vn -0.670931 0.306544 0.675191
vn -0.675200 0.306209 0.671074
vn -0.727689 0.300977 0.616346
vn -0.614505 0.309858 0.725515
vn -0.614505 0.309858 0.725515
vn 0.994190 0.107641 0.000000
vn 0.686291 -0.727327 0.000000
vn 0.686291 -0.727327 0.000000
vn 0.994190 0.107641 0.000000
vn 0.504308 -0.863524 0.000000
vn 0.504308 -0.863524 0.000000
vn 0.614505 0.309858 0.725515
vn 0.670931 0.306544 0.675191
vn 0.675200 0.306209 0.671074
vn 0.614505 0.309857 0.725515
vn 0.727689 0.300977 0.616346
vn 0.727689 0.300977 0.616346
vn -0.763071 0.646314 0.000000
vn -0.707107 0.707107 0.000000
vn -0.707107 0.707107 0.000000
vn -0.763071 0.646314 0.000000
vn -0.646314 0.763071 0.000000
vn -0.646314 0.763071 0.000000
vn 0.000000 0.763071 0.646314
vn 0.000000 0.707107 0.707107
vn 0.000000 0.707107 0.707107
vn 0.000000 0.763071 0.646314
vn 0.000000 0.646314 0.763071
vn 0.000000 0.646314 0.763071
vn 0.646314 0.763071 0.000000
vn 0.707107 0.707107 0.000000
vn 0.707107 0.707107 0.000000
vn 0.646314 0.763071 0.000000
vn 0.763071 0.646314 0.000000
vn 0.763071 0.646314 0.000000
vn -0.727689 0.300977 -0.616346
vn -0.675200 0.306209 -0.671074
vn -0.670931 0.306544 -0.675191
vn -0.727689 0.300977 -0.616346
vn -0.614505 0.309857 -0.725515
vn -0.614505 0.309858 -0.725515
vn 0.000000 0.646314 -0.763071
vn 0.000000 0.707107 -0.707107
vn 0.000000 0.707107 -0.707107
vn 0.000000 0.646314 -0.763071
vn 0.000000 0.763071 -0.646314
vn 0.000000 0.763071 -0.646314
vn 0.614505 0.309857 -0.725515
vn 0.675200 0.306209 -0.671074
vn 0.670931 0.306544 -0.675191
vn 0.614505 0.309858 -0.725515
vn 0.727689 0.300977 -0.616346
vn 0.727689 0.300977 -0.616346
vn 0.000000 -0.863524 -0.504308
vn 0.000000 -0.619748 -0.784800
vn 0.000000 -0.619748 -0.784800
vn 0.000000 -0.863524 -0.504308
vn 0.000000 0.399024 -0.916940
vn 0.000000 0.399024 -0.916940
vn 0.000000 0.332397 0.943140
vn 0.000000 0.332397 0.943140
vn 0.000000 0.332397 0.943140
vn 0.000000 0.332397 0.943140
vn 0.000000 1.000000 0.000000
vn 0.000000 1.000000 0.000000
vn 0.000000 1.000000 0.000000
vn 0.000000 1.000000 0.000000
vn 0.000000 0.332397 -0.943140
vn 0.000000 0.332397 -0.943140
vn 0.000000 0.332397 -0.943140
vn 0.000000 0.332397 -0.943140
vn 0.000000 -1.000000 0.000000
vn 0.000000 -1.000000 0.000000
vn 0.000000 -1.000000 0.000000
vn 0.000000 -1.000000 0.000000
vn 0.966794 0.255558 0.000000
vn 0.966794 0.255558 0.000000
vn 0.966794 0.255558 0.000000
vn 0.966794 0.255558 0.000000
vn -0.966794 0.255558 0.000000
vn -0.966794 0.255558 0.000000
vn -0.966794 0.255558 0.000000
vn -0.966794 0.255558 0.000000
vn -0.548188 0.665418 0.506665
vn -0.704507 0.612796 0.357981
vn -0.816725 -0.104898 0.567412
vn -0.687457 -0.111602 0.717598
vn -0.442698 -0.779767 0.442698
vn -0.571727 -0.146218 0.807310
vn -0.316388 0.684916 0.656345
vn 0.571727 -0.146218 0.807310
vn 0.442698 -0.779767 0.442698
vn 0.816725 -0.104898 0.567412
vn 0.687457 -0.111602 0.717598
vn 0.704507 0.612796 0.357981
vn 0.548188 0.665418 0.506665
vn 0.316388 0.684916 0.656345
vn -0.538224 0.595951 0.595951
vn -0.536439 0.651511 0.536439
vn -0.595951 0.595951 0.538224
vn -0.577350 0.577350 0.577350
vn -0.651511 0.536439 0.536439
vn -0.595951 0.538224 0.595951
vn -0.536439 0.536439 0.651511
vn 0.595951 0.538224 0.595951
vn 0.651511 0.536439 0.536439
vn 0.595951 0.595951 0.538224
vn 0.577350 0.577350 0.577350
vn 0.536439 0.651511 0.536439
vn 0.538224 0.595951 0.595951
vn 0.536439 0.536439 0.651511
vn -0.538224 0.595951 -0.595951
vn -0.536439 0.536439 -0.651511
vn -0.595951 0.538224 -0.595951
vn -0.577350 0.577350 -0.577350
vn -0.651511 0.536439 -0.536439
vn -0.595951 0.595951 -0.538224
vn -0.536439 0.651511 -0.536439
vn 0.595951 0.595951 -0.538224
vn 0.651511 0.536439 -0.536439
vn 0.595951 0.538224 -0.595951
vn 0.577350 0.577350 -0.577350
vn 0.536439 0.536439 -0.651511
vn 0.538224 0.595951 -0.595951
vn 0.536439 0.651511 -0.536439
vn -0.571727 -0.146218 -0.807310
vn -0.442698 -0.779767 -0.442698
vn -0.816725 -0.104898 -0.567412
vn -0.687457 -0.111602 -0.717598
vn -0.704507 0.612796 -0.357981
vn -0.548188 0.665418 -0.506665
vn -0.316388 0.684916 -0.656345
vn 0.548188 0.665418 -0.506665
vn 0.704507 0.612796 -0.357981
vn 0.816725 -0.104898 -0.567412
vn 0.687457 -0.111602 -0.717598
vn 0.442698 -0.779767 -0.442698
vn 0.571727 -0.146218 -0.807310
vn 0.316388 0.684916 -0.656345
vn 0.000000 0.000000 1.000000
vn 0.000000 0.000000 1.000000
vn 0.000000 0.000000 1.000000
vn 0.000000 0.000000 1.000000
vn 0.000000 0.000000 -1.000000
vn 0.000000 0.000000 -1.000000
vn 0.000000 0.000000 -1.000000
vn 0.000000 0.000000 -1.000000
vn 0.000000 -1.000000 0.000000
vn 0.000000 -1.000000 0.000000
vn 0.000000 -1.000000 0.000000
vn 0.000000 -1.000000 0.000000
vn 0.000000 0.721800 0.692102
vn 0.000000 0.000000 0.000000
vn 0.000000 0.000000 0.000000
vn 0.000000 0.721800 0.692102
vn 0.000000 0.000000 0.000000
vn 0.000000 0.000000 0.000000
vn 0.000000 0.000000 0.000000
vn 0.000000 0.000000 0.000000
vn 0.000000 0.000000 -0.000000
vn 0.000000 0.721988 -0.691905
vn 0.000000 0.721988 -0.691905
vn 0.000000 0.000000 -0.000000
vn 0.000000 0.000000 0.000000
vn 0.000000 0.721988 0.691905
vn 0.000000 0.721988 0.691905
vn 0.000000 0.000000 0.000000
vn 0.000000 0.721800 -0.692102
vn 0.000000 0.000000 -0.000000
vn 0.000000 0.000000 -0.000000
vn 0.000000 0.721800 -0.692102
vn 0.000000 0.000000 0.000000
vn 0.000000 0.000000 0.000000
vn 0.000000 0.000000 0.000000
vn 0.000000 0.000000 0.000000
vn 0.000000 0.000000 1.000000
vn 0.000000 0.000000 1.000000
vn 0.000000 0.000000 1.000000
vn 0.000000 0.000000 1.000000
vn 0.000000 -1.000000 0.000000
vn 0.000000 -1.000000 0.000000
vn 0.000000 -1.000000 0.000000
vn 0.000000 -1.000000 0.000000
vn 0.000000 0.000000 -1.000000
vn 0.000000 0.000000 -1.000000
vn 0.000000 0.000000 -1.000000
vn 0.000000 0.000000 -1.000000
s 1
g pCube1
usemtl initialShadingGroup
f 57/77/1 58/78/2 59/79/3 60/80/4
f 58/81/2 61/82/5 62/83/6 59/84/3
s 2
f 4/2/7 3/27/8 11/34/9 10/16/10
f 3/28/8 2/1/11 12/3/12 11/33/9
s 3
f 6/22/13 5/29/14 15/37/15 14/23/16
f 5/29/14 4/2/17 16/5/18 15/37/15
s 4
f 63/85/19 64/86/20 65/87/21 66/88/22
f 64/89/20 67/90/23 68/91/24 65/92/21
s 5
f 10/16/25 9/32/26 23/42/27 22/6/28
f 9/32/26 8/4/29 24/7/30 23/42/27
s 6
f 14/23/31 13/35/32 27/46/33 26/24/34
f 13/36/32 18/17/35 28/9/36 27/45/33
s 7
f 18/17/37 17/38/38 21/41/39 20/18/40
f 17/38/38 16/5/41 22/6/42 21/41/39
s 8
f 20/18/43 19/39/44 35/52/45 34/10/46
f 19/40/44 24/7/47 36/11/48 35/51/45
s 9
f 26/24/49 25/43/50 39/56/51 38/8/52
f 25/44/50 30/19/53 40/14/54 39/55/51
s 10
f 30/19/55 29/47/56 33/50/57 32/20/58
f 29/47/56 28/9/59 34/10/60 33/50/57
s 11
f 32/20/61 31/48/62 47/62/63 46/15/64
f 31/49/62 36/11/65 48/12/66 47/61/63
s 12
f 42/21/67 41/57/68 45/60/69 44/13/70
f 41/57/68 40/14/71 46/15/72 45/60/69
s off
f 4/2/73 10/16/74 22/6/75 16/5/76
f 18/17/77 20/18/78 34/10/79 28/9/80
f 30/19/81 32/20/82 46/15/83 40/14/84
f 42/21/85 44/13/86 12/3/87 2/1/88
f 8/4/89 48/12/90 36/11/91 24/7/92
f 38/8/93 6/22/94 14/23/95 26/24/96
s 13
f 5/29/97 6/22/98 1/26/99 49/64/100
f 1/25/99 2/1/101 3/28/102 49/63/100
f 3/27/102 4/2/103 5/29/97 49/64/100
s 14
f 11/33/104 12/3/105 7/31/106 50/66/107
f 7/30/106 8/4/108 9/32/109 50/65/107
f 9/32/109 10/16/110 11/34/104 50/65/107
s 15
f 17/38/111 18/17/112 13/36/113 51/67/114
f 13/35/113 14/23/115 15/37/116 51/67/114
f 15/37/116 16/5/117 17/38/111 51/67/114
s 16
f 23/42/118 24/7/119 19/40/120 52/68/121
f 19/39/120 20/18/122 21/41/123 52/68/121
f 21/41/123 22/6/124 23/42/118 52/68/121
s 17
f 29/47/125 30/19/126 25/44/127 53/70/128
f 25/43/127 26/24/129 27/46/130 53/69/128
f 27/45/130 28/9/131 29/47/125 53/70/128
s 18
f 35/51/132 36/11/133 31/49/134 54/72/135
f 31/48/134 32/20/136 33/50/137 54/71/135
f 33/50/137 34/10/138 35/52/132 54/71/135
s 19
f 41/57/139 42/21/140 37/54/141 55/74/142
f 37/53/141 38/8/143 39/56/144 55/73/142
f 39/55/144 40/14/145 41/57/139 55/74/142
s 20
f 47/61/146 48/12/147 43/59/148 56/76/149
f 43/58/148 44/13/150 45/60/151 56/75/149
f 45/60/151 46/15/152 47/62/146 56/75/149
s off
f 2/1/153 1/25/154 58/78/155 57/77/156
f 37/54/157 42/21/158 60/80/159 59/79/160
f 42/21/161 2/1/162 57/77/163 60/80/164
f 1/26/165 6/22/166 61/82/167 58/81/168
f 6/22/169 38/8/170 62/83/171 61/82/172
f 38/8/173 37/53/174 59/84/175 62/83/176
f 8/4/177 7/30/178 64/86/179 63/85/180
f 43/59/181 48/12/182 66/88/183 65/87/184
f 48/12/185 8/4/186 63/85/187 66/88/188
f 7/31/189 12/3/190 67/90/191 64/89/192
f 12/3/193 44/13/194 68/91/195 67/90/196
f 44/13/197 43/58/198 65/92/199 68/91/200
