# This file uses centimeters as units for non-parametric coordinates.

mtllib Eden_origin.mtl
g default
v 0.982725 0.298139 0.033484
v 1.030079 0.345493 -0.033484
v 0.968855 0.378978 0.080838
v 1.016209 0.426332 0.013870
v 0.888017 0.392847 0.033484
v 0.935371 0.440201 -0.033484
v 0.901887 0.312009 -0.013870
v 0.949240 0.359363 -0.080838
vt 0.180865 0.183119
vt 0.339306 0.183119
vt 0.180865 0.341559
vt 0.339306 0.341559
vt 0.180865 0.500000
vt 0.339306 0.500000
vt 0.180865 0.658441
vt 0.339306 0.658441
vt 0.180865 0.816881
vt 0.339306 0.816881
vt 0.497747 0.183119
vt 0.497747 0.341559
vt 0.022425 0.183119
vt 0.022425 0.341559
vn 0.853553 -0.146447 0.500000
vn 0.853553 -0.146447 0.500000
vn 0.853553 -0.146447 0.500000
vn 0.853553 -0.146447 0.500000
vn -0.146447 0.853553 0.500000
vn -0.146447 0.853553 0.500000
vn -0.146447 0.853553 0.500000
vn -0.146447 0.853553 0.500000
vn -0.853553 0.146447 -0.500000
vn -0.853553 0.146447 -0.500000
vn -0.853553 0.146447 -0.500000
vn -0.853553 0.146447 -0.500000
vn 0.146447 -0.853553 -0.500000
vn 0.146447 -0.853553 -0.500000
vn 0.146447 -0.853553 -0.500000
vn 0.146447 -0.853553 -0.500000
vn 0.500000 0.500000 -0.707107
vn 0.500000 0.500000 -0.707107
vn 0.500000 0.500000 -0.707107
vn 0.500000 0.500000 -0.707107
vn -0.500000 -0.500000 0.707107
vn -0.500000 -0.500000 0.707107
vn -0.500000 -0.500000 0.707107
vn -0.500000 -0.500000 0.707107
s off
g pCube2
usemtl Eden:phong1SG
f 1/1/1 2/2/2 4/4/3 3/3/4
f 3/3/5 4/4/6 6/6/7 5/5/8
f 5/5/9 6/6/10 8/8/11 7/7/12
f 7/7/13 8/8/14 2/10/15 1/9/16
f 2/2/17 8/11/18 6/12/19 4/4/20
f 7/13/21 1/1/22 3/3/23 5/14/24
